<svg width="35" height="29" viewBox="0 0 35 29" fill="none" xmlns="http://www.w3.org/2000/svg">
<g clip-path="url(#clip0_0_43)">
<path d="M26.1 19.9H7.90001C5.30001 19.9 3.70001 18.1 3.30001 16.3C3.00001 15.2 0.700012 7.10005 1.19824e-05 4.90005C-0.099988 4.60005 0.100012 4.30005 0.400012 4.30005H30V6.30005H2.50001C3.30001 8.90005 5.00001 14.8 5.20001 15.9C5.40001 16.8 6.30001 17.9 7.90001 17.9H26.1V19.9Z" fill="#2B7BC6"/>
<path d="M24.6 24.8L23 23.7C23.2 23.4 23.4 23.1 23.5 22.7C24 21.2 27.5 8.8 29 3.5C29.5 1.4 31.3 0 33.5 0H34.7C34.8 0 35 0.2 35 0.3V1.6C35 1.8 34.8 2 34.7 2H33.5C32.3 2 31.2 2.8 30.9 4C29.4 9.3 25.9 21.8 25.4 23.4C25.2 23.9 24.9 24.4 24.6 24.8Z" fill="#2B7BC6"/>
<path d="M20.5 25H8.40002V27H20.5V25Z" fill="#2B7BC6"/>
<path d="M6 29C4.3 29 3 27.6 3 26C3 24.3 4.4 23 6 23C7.7 23 9 24.4 9 26C9 27.6 7.7 29 6 29ZM6 24.9C5.4 24.9 5 25.4 5 25.9C5 26.5 5.5 26.9 6 26.9C6.5 26.9 7 26.4 7 25.9C7 25.4 6.6 24.9 6 24.9Z" fill="#2B7BC6"/>
<path d="M22.6 29C20.9 29 19.6 27.6 19.6 26C19.6 24.3 21 23 22.6 23C24.3 23 25.6 24.4 25.6 26C25.7 27.6 24.3 29 22.6 29ZM22.6 24.9C22 24.9 21.6 25.4 21.6 25.9C21.6 26.5 22.1 26.9 22.6 26.9C23.1 26.9 23.6 26.4 23.6 25.9C23.7 25.4 23.2 24.9 22.6 24.9Z" fill="#2B7BC6"/>
</g>
<defs>
<clipPath id="clip0_0_43">
<rect width="35" height="29" fill="white"/>
</clipPath>
</defs>
</svg>
