<svg width="32" height="29" viewBox="0 0 32 29" fill="none" xmlns="http://www.w3.org/2000/svg">
<g clip-path="url(#clip0_0_49)">
<path d="M16 29C15.5 29 15 28.8 14.6 28.5C11.2 25.5 0 15.2 0 8.9C0 4 3.9 0 8.6 0C11.7 0 14.5 1.7 16 4.3C17.5 1.7 20.3 0 23.4 0C28.1 0 32 4 32 8.9C32 15.2 20.8 25.5 17.4 28.5C17 28.8 16.5 29 16 29ZM8.6 2C5 2 2 5.1 2 8.9C2 13.3 9.5 21.4 15.9 27H16C22.5 21.4 30 13.3 30 8.9C30 5.1 27 2 23.4 2C20.7 2 18.3 3.7 17.3 6.3C17.1 6.6 16.8 7 16 7C15.3 7 14.9 6.8 14.7 6.3C13.7 3.7 11.3 2 8.6 2Z" fill="#2B7BC6"/>
</g>
<defs>
<clipPath id="clip0_0_49">
<rect width="32" height="29" fill="white"/>
</clipPath>
</defs>
</svg>
