<svg width="10" height="13" viewBox="0 0 10 13" fill="none" xmlns="http://www.w3.org/2000/svg">
<path fill-rule="evenodd" clip-rule="evenodd" d="M10 4.70476C10 2.10476 7.76221 0 4.99789 0C1.77284 0 -0.728211 2.90952 0.193231 6.12857C0.324865 6.5 0.522317 6.93333 0.785586 7.30476L0.851403 7.36667L4.60299 12.8143C4.80044 13.0619 5.19534 13.0619 5.39279 12.8143L9.21019 7.24286C9.73673 6.5 10 5.57143 10 4.70476ZM6.42855 4.84025C6.42855 5.5498 5.76921 6.15798 4.99998 6.15798C4.23075 6.15798 3.57141 5.65116 3.57141 4.84025C3.57141 4.02933 4.23075 3.42114 4.99998 3.42114C5.8791 3.42114 6.42855 4.13069 6.42855 4.84025Z" fill="#FFD600"/>
</svg>
