<svg width="17" height="12" viewBox="0 0 17 12" fill="none" xmlns="http://www.w3.org/2000/svg">
<g clip-path="url(#clip0_260_497)">
<path fill-rule="evenodd" clip-rule="evenodd" d="M8.3 0C4.6 0 1.4 2.4 0 5.9C1.4 9.4 4.6 11.8 8.3 11.8C12 11.8 15.2 9.4 16.6 5.9C15.2 2.4 12 0 8.3 0ZM8.3 10.4C5.8 10.4 3.7 8.4 3.7 5.8C3.7 3.3 5.7 1.2 8.3 1.2C10.8 1.2 12.9 3.2 12.9 5.8C12.9 8.4 10.8 10.4 8.3 10.4Z" fill="#9DA4A8"/>
<path d="M8.2998 8.3999C9.68052 8.3999 10.7998 7.28061 10.7998 5.8999C10.7998 4.51919 9.68052 3.3999 8.2998 3.3999C6.91909 3.3999 5.7998 4.51919 5.7998 5.8999C5.7998 7.28061 6.91909 8.3999 8.2998 8.3999Z" fill="#9DA4A8"/>
</g>
<defs>
<clipPath id="clip0_260_497">
<rect width="16.6" height="11.7" fill="white"/>
</clipPath>
</defs>
</svg>
