<svg width="28" height="28" viewBox="0 0 28 28" fill="none" xmlns="http://www.w3.org/2000/svg">
<g clip-path="url(#clip0_0_617)">
<path d="M14.0098 2.52764C17.7523 2.52764 18.1833 2.54724 19.6725 2.60602C21.0441 2.6648 21.7887 2.89993 22.2785 3.09587C22.9251 3.35059 23.3954 3.64451 23.8852 4.13436C24.3751 4.62421 24.669 5.09447 24.9237 5.74108C25.1197 6.23093 25.3352 6.97551 25.4136 8.3471C25.4724 9.81666 25.492 10.2673 25.492 14.0098C25.492 17.7523 25.4724 18.1833 25.4136 19.6725C25.3548 21.0441 25.1197 21.7887 24.9237 22.2785C24.669 22.9251 24.3751 23.3954 23.8852 23.8852C23.3954 24.3751 22.9251 24.669 22.2785 24.9237C21.7887 25.1197 21.0441 25.3352 19.6725 25.4136C18.2029 25.4724 17.7523 25.492 14.0098 25.492C10.2673 25.492 9.83625 25.4724 8.3471 25.4136C6.97551 25.3548 6.23093 25.1197 5.74108 24.9237C5.09447 24.669 4.62421 24.3751 4.13436 23.8852C3.64451 23.3954 3.35059 22.9251 3.09587 22.2785C2.89993 21.7887 2.68439 21.0441 2.60602 19.6725C2.54724 18.2029 2.52764 17.7523 2.52764 14.0098C2.52764 10.2673 2.54724 9.83625 2.60602 8.3471C2.6648 6.97551 2.89993 6.23093 3.09587 5.74108C3.35059 5.09447 3.64451 4.62421 4.13436 4.13436C4.62421 3.64451 5.09447 3.331 5.74108 3.09587C6.23093 2.89993 6.97551 2.68439 8.3471 2.60602C9.81666 2.52764 10.2673 2.52764 14.0098 2.52764ZM14.0098 0C10.2085 0 9.71869 0.0195941 8.22953 0.0783765C6.74038 0.156753 5.72148 0.391882 4.83975 0.744577C3.91882 1.09727 3.13506 1.56753 2.35129 2.35129C1.56753 3.13506 1.09727 3.91882 0.744577 4.83975C0.391882 5.72148 0.156753 6.74038 0.0783765 8.22953C0.0195941 9.71869 0 10.2085 0 14.0098C0 17.8111 0.0195941 18.2813 0.0783765 19.7901C0.137159 21.2792 0.391882 22.2981 0.724983 23.1798C1.09727 24.1008 1.56753 24.8845 2.35129 25.6487C3.13506 26.4325 3.91882 26.9027 4.83975 27.2554C5.72148 27.6081 6.74038 27.8432 8.24913 27.902C9.73828 27.9608 10.2281 27.9804 14.0294 27.9804C17.8307 27.9804 18.3009 27.9608 19.8097 27.902C21.2988 27.8432 22.3177 27.5885 23.219 27.2554C24.14 26.9027 24.9237 26.4129 25.7075 25.6487C26.4913 24.8649 26.9615 24.0812 27.3142 23.1603C27.6669 22.2785 27.902 21.2596 27.9608 19.7705C28.0196 18.2813 28.0392 17.7915 28.0392 13.9902C28.0392 10.1889 28.0196 9.71869 27.9608 8.20994C27.902 6.72078 27.6473 5.70189 27.3142 4.82015C26.9223 3.91882 26.4325 3.13506 25.6683 2.35129C24.8845 1.56753 24.1008 1.09727 23.1798 0.744577C22.2981 0.391882 21.2792 0.156753 19.7705 0.0979706C18.2813 0.0195941 17.8111 0 14.0098 0Z" fill="#2B7BC6"/>
<path d="M14.0098 6.81885C10.0322 6.81885 6.81876 10.0323 6.81876 14.0099C6.81876 17.9875 10.0322 21.2009 14.0098 21.2009C17.9874 21.2009 21.2008 17.9875 21.2008 14.0099C21.2008 10.0323 17.9678 6.81885 14.0098 6.81885ZM14.0098 18.6733C11.4234 18.6733 9.34641 16.5767 9.34641 14.0099C9.34641 11.4235 11.443 9.34649 14.0098 9.34649C16.5962 9.34649 18.6732 11.4431 18.6732 14.0099C18.6732 16.5767 16.5766 18.6733 14.0098 18.6733Z" fill="#2B7BC6"/>
<path d="M23.1603 6.52494C23.1603 7.44586 22.4157 8.21003 21.4752 8.21003C20.5542 8.21003 19.7901 7.46546 19.7901 6.52494C19.7901 5.60401 20.5346 4.83984 21.4752 4.83984C22.4157 4.83984 23.1603 5.60401 23.1603 6.52494Z" fill="#2B7BC6"/>
</g>
<defs>
<clipPath id="clip0_0_617">
<rect width="28" height="28" fill="white"/>
</clipPath>
</defs>
</svg>
