<svg width="33" height="28" viewBox="0 0 33 28" fill="none" xmlns="http://www.w3.org/2000/svg">
<g clip-path="url(#clip0_0_622)">
<path d="M30.8132 0.22658L1.23485 11.4555C-0.372892 11.9312 -0.331667 13.5235 0.863835 13.9164L8.26358 16.2325L11.1081 24.9592C11.4585 25.9105 11.7264 26.2827 12.3242 26.2827C12.9425 26.2827 13.1693 26.0552 13.8289 25.4969C14.5709 24.7938 15.7252 23.6771 17.539 21.8987L25.248 27.6062C26.6702 28.392 27.6802 27.9784 28.0512 26.2827L32.8745 2.29453C33.3898 0.22658 32.1736 -0.393804 30.8132 0.22658ZM9.43848 15.6948L26.2786 5.08626C27.1031 4.52791 27.371 5.14829 27 5.58256L13.025 18.197L12.3036 24.5043L9.43848 15.6948Z" fill="#2B7BC6"/>
</g>
<defs>
<clipPath id="clip0_0_622">
<rect width="33" height="28" fill="white"/>
</clipPath>
</defs>
</svg>
