<svg width="28" height="28" viewBox="0 0 28 28" fill="none" xmlns="http://www.w3.org/2000/svg">
<g clip-path="url(#clip0_0_639)">
<path fill-rule="evenodd" clip-rule="evenodd" d="M14 0C6.2656 0 0 6.26561 0 14C0 16.6401 0.7251 19.1129 2.00797 21.2324L0.2417 28L7.2324 26.2709C9.24037 27.3865 11.5458 28.0186 14 28.0186C21.7344 28.0186 28 21.753 28 14.0186C28 6.2656 21.7344 0 14 0ZM14 25.6574C11.6388 25.6574 9.42629 24.9509 7.58566 23.7238L3.55113 24.7092L4.55511 20.8234C3.16069 18.9084 2.34263 16.5471 2.34263 13.9814C2.34263 7.54847 7.56707 2.32404 14 2.32404C20.4329 2.32404 25.6574 7.54847 25.6574 13.9814C25.6574 20.4329 20.4329 25.6574 14 25.6574ZM20.5631 17.1793C20.2098 16.9934 18.4807 16.0637 18.1647 15.9336C17.8486 15.8035 17.6069 15.7291 17.3466 16.0823C17.0863 16.4356 16.3798 17.2165 16.1567 17.4396C15.9336 17.6627 15.7291 17.6999 15.3758 17.4954C15.0226 17.3094 13.8884 16.8818 12.5684 15.6175C11.5458 14.6321 10.8765 13.4422 10.672 13.0704C10.4675 12.6985 10.6906 12.5312 10.8579 12.3453C11.0252 12.1594 11.2297 11.9363 11.4157 11.7317C11.6016 11.5272 11.7317 11.3599 11.7875 11.1554C11.8619 10.8951 11.8619 10.7092 11.7875 10.5232C11.7131 10.3373 11.0996 8.53386 10.7835 7.82736C10.5418 7.28818 10.2258 7.2324 10.0027 7.19522C9.79814 7.15803 9.55644 7.15803 9.31474 7.13944C9.07304 7.13944 8.6826 7.21381 8.34794 7.54847C8.01328 7.90173 7.04648 8.71979 6.9907 10.4861C6.91633 12.2523 8.14343 14 8.31076 14.2417C8.47809 14.4834 10.6348 18.2948 14.2231 19.8752C15.7291 20.5259 16.6029 20.842 17.1607 20.9721C17.9416 21.158 19.0571 20.7862 19.4475 20.6003C20.0797 20.3028 20.749 19.838 20.9535 19.3174C21.2882 18.4993 21.3068 17.7742 21.2324 17.6255C21.158 17.4768 20.9163 17.3838 20.5631 17.1793Z" fill="#2B7BC6"/>
</g>
<defs>
<clipPath id="clip0_0_639">
<rect width="28" height="28" fill="white"/>
</clipPath>
</defs>
</svg>
