<svg width="34" height="34" viewBox="0 0 34 34" fill="none" xmlns="http://www.w3.org/2000/svg">
<circle cx="17" cy="17" r="17" fill="#F3F9FF"/>
<g clip-path="url(#clip0_0_224)">
<path d="M17 28C16.6562 28 16.3125 27.869 16.0375 27.6724C13.7 25.7069 6 18.9586 6 14.831C6 11.6207 8.68125 9 11.9125 9C14.0437 9 15.9688 10.1138 17 11.8172C18.0312 10.1138 19.9563 9 22.0875 9C25.3188 9 28 11.6207 28 14.831C28 18.9586 20.3 25.7069 17.9625 27.6724C17.6875 27.869 17.3438 28 17 28ZM11.9125 10.3103C9.4375 10.3103 7.375 12.3414 7.375 14.831C7.375 17.7138 12.5312 23.0207 16.9312 26.6897H17C21.4688 23.0207 26.625 17.7138 26.625 14.831C26.625 12.3414 24.5625 10.3103 22.0875 10.3103C20.2312 10.3103 18.5812 11.4241 17.8937 13.1276C17.7562 13.3241 17.55 13.5862 17 13.5862C16.5188 13.5862 16.2437 13.4552 16.1062 13.1276C15.4187 11.4241 13.7688 10.3103 11.9125 10.3103Z" fill="#2B7BC6"/>
</g>
<defs>
<clipPath id="clip0_0_224">
<rect width="22" height="19" fill="white" transform="translate(6 9)"/>
</clipPath>
</defs>
</svg>
