<svg width="89" height="34" viewBox="0 0 89 34" fill="none" xmlns="http://www.w3.org/2000/svg">
<path d="M88.4729 0H61.2502C59.334 0 57.4434 0.427579 55.6038 1.28274C54.9268 1.5937 54.2881 1.94354 53.6749 2.35816C53.1767 2.65617 52.4741 3.21332 51.5671 4.04256C48.7695 6.93196 47.3643 10.3396 47.3643 14.2785V18.8783C47.3643 22.0398 48.284 24.9032 50.1108 27.4428C50.4557 27.9092 50.9411 28.4664 51.5671 29.1142C52.193 29.6973 52.7296 30.1638 53.1894 30.5136C55.706 32.2757 58.3759 33.1568 61.2119 33.1568H88.4346V13.1642H68.6722C68.4295 13.1642 68.1484 13.1902 67.8546 13.2549C67.037 13.54 66.4622 14.0065 66.1173 14.6413C65.7724 15.056 65.6063 15.7038 65.6063 16.5978V20.4979H79.5305V24.5923H61.033C60.6881 24.5923 60.1771 24.4886 59.5256 24.2813C59.1935 24.1647 58.8358 23.9833 58.4653 23.763C58.1587 23.5557 57.7883 23.2577 57.3667 22.882C56.3575 21.7547 55.8465 20.4849 55.8465 19.0726V14.0971C55.8465 12.931 56.2042 11.8426 56.9452 10.832C58.1076 9.34195 59.5895 8.59045 61.3524 8.59045H88.4729V0Z" fill="#2B7BC6"/>
<path d="M41.1087 0H13.8859C11.9697 0 10.0791 0.427579 8.23958 1.28274C7.56253 1.5937 6.9238 1.94354 6.31062 2.35816C5.81241 2.65617 5.10981 3.21332 4.20282 4.04256C1.4052 6.93196 0 10.3396 0 14.2785V18.8783C0 22.0398 0.919767 24.9032 2.74653 27.4428C3.09144 27.9092 3.57687 28.4664 4.20282 29.1142C4.82877 29.6973 5.3653 30.1638 5.82519 30.5136C8.34177 32.2757 11.0117 33.1568 13.8476 33.1568H41.0703V13.1642H21.3079C21.0652 13.1642 20.7842 13.1902 20.4904 13.2549C19.6728 13.54 19.0979 14.0065 18.753 14.6413C18.4081 15.056 18.242 15.7038 18.242 16.5978V20.4979H32.1663V24.5923H13.6688C13.3238 24.5923 12.8129 24.4886 12.1614 24.2813C11.8292 24.1647 11.4715 23.9833 11.1011 23.763C10.7945 23.5557 10.424 23.2577 10.0025 22.882C8.99327 21.7547 8.48229 20.4849 8.48229 19.0726V14.0971C8.48229 12.931 8.83998 11.8426 9.5809 10.832C10.7434 9.34195 12.2252 8.59045 13.9881 8.59045H41.1087V0Z" fill="#2B7BC6"/>
</svg>
